<svg width="16" height="16" fill="none" xmlns="http://www.w3.org/2000/svg"><g clip-path="url(#a)"><path fill-rule="evenodd" clip-rule="evenodd" d="m12.977 1.693 1.8-.413A1 1 0 0 1 16 2.255v7.647a1 1 0 0 1-1.093.996l-2.692-.253.557 1.67a.52.52 0 0 1-.926.453L10 10.438V14a2 2 0 1 1-4 0v-3.563l-1.846 2.331a.52.52 0 0 1-.926-.453l.557-1.67-2.692.253A1 1 0 0 1 0 9.902V2.255a1 1 0 0 1 1.223-.975l1.8.413A2 2 0 0 1 5 0h6a2 2 0 0 1 1.977 1.693ZM4.5 7a.5.5 0 0 1 0-1h1a.5.5 0 0 1 0 1h-1Zm6 0a.5.5 0 0 1 0-1h1a.5.5 0 0 1 0 1h-1ZM7 14a1 1 0 1 1 2 0 1 1 0 0 1-2 0Z" fill="#000"/></g><defs><clipPath id="a"><path fill="#fff" d="M0 0h16v16H0z"/></clipPath></defs></svg>