<?xml version="1.0" standalone="no"?>
<!DOCTYPE svg PUBLIC "-//W3C//DTD SVG 20010904//EN"
 "http://www.w3.org/TR/2001/REC-SVG-20010904/DTD/svg10.dtd">
<svg version="1.0" xmlns="http://www.w3.org/2000/svg"
 width="128" height="128" viewBox="0 0 2504.000000 2504.000000"
 preserveAspectRatio="xMidYMid meet">

<g transform="translate(0.000000,2504.000000) scale(0.100000,-0.100000)"
fill="#000000" stroke="none">
<path d="M11875 19804 c-869 -25 -1483 -59 -2160 -120 -1971 -176 -3411 -509
-4075 -941 -242 -158 -391 -339 -429 -521 -8 -39 -11 -1810 -11 -6520 0 -5728
2 -6474 15 -6531 132 -557 1237 -1009 3155 -1290 902 -132 1818 -211 3045
-263 393 -17 1838 -17 2240 0 1877 78 3358 256 4450 537 779 199 1272 421
1545 695 105 105 159 187 193 295 l22 70 0 6495 0 6495 -27 73 c-41 113 -85
179 -189 283 -370 372 -1224 676 -2524 899 -977 168 -2130 278 -3465 331 -249
9 -1566 19 -1785 13z m1965 -433 c843 -39 1388 -79 2035 -152 1726 -192 3043
-544 3463 -924 60 -54 112 -136 112 -178 0 -128 -249 -321 -608 -472 -932
-389 -2720 -681 -4747 -775 -992 -46 -2226 -44 -3215 5 -2482 123 -4507 531
-5122 1032 -125 102 -164 190 -123 277 54 112 279 268 567 390 1016 431 2959
727 5288 806 324 11 2063 4 2350 -9z m-7945 -2026 c534 -262 1346 -475 2410
-634 1768 -264 3922 -353 5925 -246 1848 99 3435 338 4400 662 289 97 594 232
753 332 l62 40 3 -1832 c2 -1295 0 -1843 -8 -1870 -7 -22 -35 -63 -72 -102
-468 -501 -2473 -940 -4928 -1080 -3160 -179 -6428 101 -8040 690 -408 149
-685 317 -767 467 -17 31 -18 120 -21 1868 -1 1009 0 1841 3 1847 3 9 24 0 67
-28 35 -23 131 -74 213 -114z m-213 -4158 c867 -548 3107 -937 5913 -1027 397
-13 1493 -13 1875 0 2813 94 4978 465 5886 1011 45 27 85 49 88 49 3 0 6 -827
6 -1837 0 -1798 -1 -1839 -20 -1881 -52 -115 -268 -265 -562 -391 -938 -402
-2745 -697 -4853 -791 -955 -43 -2108 -41 -3065 5 -2200 106 -4046 428 -4901
856 -203 101 -364 224 -413 314 l-21 40 -3 1843 c-1 1212 1 1842 8 1842 5 0
33 -15 62 -33z m12 -4281 c827 -502 2716 -861 5211 -991 1328 -69 2625 -54
3985 45 2102 154 3734 496 4459 933 52 31 96 57 98 57 1 0 3 -828 3 -1840 l0
-1841 -21 -41 c-94 -185 -490 -397 -1069 -573 -919 -278 -2257 -482 -3805
-580 -657 -41 -1219 -57 -2025 -57 -1297 0 -2338 56 -3440 183 -1695 195
-2997 553 -3378 927 -31 32 -66 75 -77 97 -20 39 -20 72 -23 1883 -1 1013 0
1842 4 1842 3 0 38 -20 78 -44z"/>
<path d="M7280 16120 c-485 -49 -864 -433 -909 -918 -38 -417 182 -814 554
-1000 590 -295 1287 30 1447 675 32 128 31 342 -1 467 -48 184 -125 326 -247
456 -177 188 -397 296 -652 320 -59 5 -109 9 -112 9 -3 -1 -39 -5 -80 -9z
m280 -438 c210 -74 355 -229 406 -434 22 -94 15 -247 -17 -337 -64 -184 -232
-337 -424 -386 -77 -19 -211 -19 -288 1 -153 40 -314 165 -385 301 -70 133
-88 286 -52 427 28 109 74 190 155 272 129 130 272 188 450 180 64 -3 120 -12
155 -24z"/>
<path d="M17825 15195 c-967 -232 -2442 -410 -3857 -466 -161 -6 -309 -15
-328 -20 -158 -39 -211 -230 -96 -345 62 -63 86 -66 363 -54 1330 57 2440 173
3443 361 215 40 584 120 650 141 167 52 196 286 47 372 -63 36 -108 38 -222
11z"/>
<path d="M7170 11801 c-649 -141 -993 -857 -696 -1449 164 -327 489 -539 857
-559 624 -34 1139 519 1059 1137 -53 411 -333 736 -735 856 -122 36 -355 44
-485 15z m335 -406 c217 -46 403 -224 459 -442 19 -71 21 -199 5 -275 -43
-208 -226 -398 -435 -452 -97 -25 -237 -21 -332 9 -423 134 -561 673 -252 986
70 72 115 103 199 138 117 49 235 61 356 36z"/>
<path d="M17879 10936 c-8 -8 -420 -96 -631 -135 -983 -182 -2102 -298 -3383
-351 -210 -9 -233 -11 -274 -33 -56 -28 -101 -96 -108 -162 -11 -89 46 -178
133 -211 42 -16 68 -16 342 -5 1478 61 2952 238 3929 471 143 34 171 47 211
96 111 134 14 334 -161 334 -29 0 -56 -2 -58 -4z"/>
<path d="M7235 7513 c-165 -26 -362 -113 -491 -217 -124 -99 -234 -244 -294
-385 -263 -617 119 -1305 783 -1411 106 -17 289 -8 397 20 338 87 614 345 718
670 36 114 46 182 46 315 0 184 -29 307 -110 465 -135 261 -363 444 -652 522
-57 15 -115 21 -222 23 -80 2 -158 1 -175 -2z m333 -438 c242 -77 412 -309
412 -563 0 -109 -14 -171 -62 -271 -73 -152 -209 -265 -384 -317 -91 -27 -239
-23 -332 9 -389 135 -543 578 -316 910 95 138 250 235 419 261 60 9 187 -5
263 -29z"/>
<path d="M17805 6644 c-964 -231 -2402 -403 -3885 -464 -146 -6 -280 -16 -299
-22 -48 -15 -107 -72 -127 -124 -44 -114 33 -252 152 -273 102 -18 1216 48
1859 109 837 80 1600 194 2245 336 255 56 289 67 329 106 47 46 64 86 64 148
0 94 -54 169 -142 199 -47 15 -81 13 -196 -15z"/>
</g>
</svg>
