<?xml version="1.0" encoding="UTF-8" standalone="no"?>
<svg
   version="1.0"
   width="128"
   height="128"
   viewBox="0 0 1036.3595 1187.1503"
   preserveAspectRatio="xMidYMid"
   id="svg7"
   sodipodi:docname="me.ppvan.psequel.svg"
   xml:space="preserve"
   inkscape:version="1.3 (0e150ed6c4, 2023-07-21)"
   inkscape:export-filename="me.ppvan.psequel.svg"
   inkscape:export-xdpi="3.680511"
   inkscape:export-ydpi="3.680511"
   xmlns:inkscape="http://www.inkscape.org/namespaces/inkscape"
   xmlns:sodipodi="http://sodipodi.sourceforge.net/DTD/sodipodi-0.dtd"
   xmlns="http://www.w3.org/2000/svg"
   xmlns:svg="http://www.w3.org/2000/svg"><defs
     id="defs7" /><sodipodi:namedview
     id="namedview7"
     pagecolor="#ffffff"
     bordercolor="#000000"
     borderopacity="0.25"
     inkscape:showpageshadow="2"
     inkscape:pageopacity="0.0"
     inkscape:pagecheckerboard="0"
     inkscape:deskcolor="#d1d1d1"
     inkscape:document-units="pt"
     inkscape:zoom="5.4151277"
     inkscape:cx="82.361862"
     inkscape:cy="76.729493"
     inkscape:window-width="1920"
     inkscape:window-height="1005"
     inkscape:window-x="0"
     inkscape:window-y="0"
     inkscape:window-maximized="1"
     inkscape:current-layer="g8" /><g
     transform="matrix(0.1,0,0,-0.1,-519.94996,1980.6321)"
     fill="#ff0000"
     stroke="#ff00ff"
     id="g7"
     style="display:inline"><path
       d="m 14139.27,10105.857 c -683.321,-169.9956 -1725.615,-300.423 -2725.511,-341.4563 -113.768,-4.3964 -218.351,-10.9912 -231.778,-14.6549 -111.648,-28.5767 -149.1,-168.5298 -67.837,-252.7947 43.811,-46.1625 60.771,-48.3607 256.511,-39.5679 939.831,41.7661 1724.201,126.7638 2432.961,264.5186 151.928,29.3095 412.679,87.9286 459.317,103.3162 118.009,38.1023 138.5,209.563 33.211,272.579 -44.517,26.378 -76.317,27.844 -156.874,8.06 z"
       id="path9"
       style="fill:#29333f;fill-opacity:1;stroke-width:0.719571" /><path
       d="m 9916.6825,19804.627 c -614.0703,-18.319 -1047.9474,-43.232 -1526.3427,-87.929 -1392.7876,-128.961 -2410.3494,-372.963 -2879.5584,-689.506 -171.0069,-115.773 -276.2962,-248.399 -303.1486,-381.757 -5.6531,-28.577 -7.773,-1326.257 -7.773,-4777.455 0,-4197.1263 1.4133,-4743.7492 10.5995,-4785.5152 93.2765,-408.1354 874.1139,-739.3332 2229.4496,-945.2327 637.3894,-96.7215 1284.6717,-154.6078 2151.7191,-192.7103 277.7095,-12.4565 1298.805,-12.4565 1582.874,0 1326.363,57.1537 2372.898,187.5811 3144.548,393.4806 550.473,145.8151 898.847,308.483 1091.759,509.2533 74.198,76.9375 112.356,137.0221 136.382,216.1578 l 15.545,51.2917 v 4759.1368 4759.136 l -19.078,53.491 c -28.973,82.798 -60.064,131.159 -133.556,207.365 -261.456,272.578 -864.927,495.331 -1783.559,658.731 -690.388,123.1 -1505.144,203.701 -2448.508,242.537 -175.954,6.594 -1106.598,13.921 -1261.3525,9.525 z m 1388.5475,-317.276 c 595.697,-28.577 980.816,-57.886 1438.013,-111.376 1219.66,-140.686 2150.306,-398.61 2447.094,-677.05 42.399,-39.568 79.144,-99.653 79.144,-130.428 0,-93.79 -175.953,-235.209 -429.637,-345.853 -658.589,-285.034 -1922.061,-498.994 -3354.42,-567.872 -700.987,-33.706 -1572.9814,-32.24 -2271.8485,3.664 -1753.8806,90.127 -3184.8269,389.084 -3619.4106,756.186 -88.3299,74.739 -115.8889,139.22 -86.9167,202.969 38.1586,82.067 197.1526,196.373 400.6649,285.767 717.9464,315.811 2090.9481,532.701 3736.7129,590.588 228.9514,8.06 1457.799,2.931 1660.604,-6.595 z M 5690.9746,18002.823 c 377.3459,-191.977 951.1377,-348.051 1703.0027,-464.556 1249.3397,-193.443 2771.4427,-258.657 4186.8427,-180.254 1305.871,72.541 2427.309,247.665 3109.217,485.073 204.218,71.076 419.744,169.995 532.099,243.27 l 43.812,29.309 2.12,-1342.377 c 1.413,-948.896 0,-1350.437 -5.653,-1370.221 -4.947,-16.12 -24.733,-46.163 -50.879,-74.739 -330.707,-367.103 -1747.521,-688.774 -3482.321,-791.358 -2232.9834,-131.16 -4542.2832,74.007 -5681.3871,505.589 -288.3092,109.179 -484.0485,232.279 -541.9929,342.189 -12.013,22.715 -12.7195,87.929 -14.8395,1368.756 -0.7067,739.333 0,1348.971 2.12,1353.368 2.1199,6.595 16.9593,0 47.3448,-20.516 24.7325,-16.854 92.5699,-54.223 150.5143,-83.533 z m -150.5143,-3046.727 c 612.657,-401.54 2195.5308,-686.575 4178.3629,-752.522 280.5363,-9.525 1055.0138,-9.525 1324.9498,0 1987.779,68.877 3517.655,340.724 4159.284,740.799 31.799,19.784 60.065,35.904 62.184,35.904 2.12,0 4.24,-605.974 4.24,-1346.041 0,-1317.464 -0.707,-1347.506 -14.133,-1378.28 -36.745,-84.266 -189.379,-194.176 -397.131,-286.502 -662.829,-294.56 -1939.727,-510.718 -3429.325,-579.596 -674.841,-31.507 -1489.5971,-30.042 -2165.8517,3.664 -1554.6081,77.67 -2859.0657,313.612 -3463.243,627.224 -143.448,74.006 -257.2171,164.133 -291.8425,230.08 l -14.8393,29.309 -2.12,1350.438 c -0.7067,888.078 0.7067,1349.704 5.6532,1349.704 3.5332,0 23.3191,-10.992 43.8116,-24.181 z m 8.4797,-3136.853 c 584.3914,-367.835 1919.2345,-630.887 3682.3015,-726.144 938.4185,-50.559 1854.9305,-39.568 2815.9605,32.973 1485.357,112.842 2638.594,363.439 3150.908,683.646 36.746,22.715 67.838,41.765 69.251,41.765 0.707,0 2.12,-606.707 2.12,-1348.238 V 9154.2732 l -14.839,-30.0424 c -66.425,-135.5566 -346.254,-290.8971 -755.399,-419.8591 -649.401,-203.7013 -1594.887,-353.1799 -2688.765,-424.9884 -464.263,-30.0422 -861.394,-41.766 -1430.946,-41.766 -916.5125,0 -1652.1249,41.0333 -2430.8422,134.0911 -1197.755,142.884 -2117.8004,405.2044 -2387.0302,679.2486 -21.9059,23.4476 -46.6383,54.9554 -54.4114,71.0756 -14.1327,28.5769 -14.1327,52.7572 -16.2527,1379.7464 -0.7067,742.264 0,1349.704 2.8265,1349.704 2.12,0 26.8524,-14.654 55.118,-32.24 z"
       id="path1"
       style="opacity:1;fill:#29333f;fill-opacity:1;stroke-width:0.719571" /><path
       d="m 14266.521,16375.408 c -683.321,-169.995 -1725.615,-300.422 -2725.511,-341.456 -113.769,-4.396 -218.352,-10.99 -231.778,-14.654 -111.649,-28.577 -149.101,-168.53 -67.838,-252.795 43.812,-46.162 60.771,-48.361 256.511,-39.568 939.831,41.766 1724.202,126.764 2432.962,264.519 151.927,29.309 412.677,87.928 459.316,103.316 118.008,38.102 138.501,209.563 33.212,272.578 -44.519,26.379 -76.318,27.845 -156.874,8.06 z"
       id="path3"
       style="fill:#29333f;fill-opacity:1;stroke-width:0.719571" /><g
       id="g8"><path
         d="m 6788.9629,17105.218 c -342.7205,-35.904 -610.5371,-317.275 -642.3359,-672.653 -26.8524,-305.552 128.6085,-596.45 391.4786,-732.739 416.9176,-216.158 909.4459,21.982 1022.5082,494.599 22.6125,93.79 21.9059,250.596 -0.7066,342.189 -33.9187,134.824 -88.33,238.872 -174.5401,334.128 -125.0753,137.755 -280.5361,216.89 -460.7294,234.476 -41.6917,3.664 -77.0237,6.595 -79.1437,6.595 -2.1198,-0.733 -27.5589,-3.663 -56.5311,-6.595 z m 197.8592,-320.939 c 148.3944,-54.222 250.8573,-167.797 286.8959,-318.009 15.5461,-68.876 10.5996,-180.986 -12.0129,-246.932 -45.225,-134.824 -163.9405,-246.933 -299.6155,-282.837 -54.4112,-13.922 -149.1009,-13.922 -203.5123,0.733 -108.1159,29.309 -221.8849,120.901 -272.0564,220.554 -49.4648,97.454 -62.1844,209.563 -36.7453,312.879 19.7859,79.869 52.2914,139.22 109.5292,199.305 91.1566,95.256 192.2061,137.754 317.9881,131.893 45.2249,-2.199 84.7967,-8.793 109.5292,-17.586 z"
         id="path2"
         style="fill:#29333f;fill-opacity:1;stroke-width:0.482756" /><path
         d="m 6755.2248,13986.975 c -342.7205,-35.904 -610.5371,-317.275 -642.3359,-672.654 -26.8523,-305.552 128.6085,-596.449 391.4786,-732.738 416.9177,-216.158 909.4458,21.982 1022.5082,494.598 22.6125,93.79 21.9059,250.597 -0.7066,342.189 -33.9187,134.824 -88.33,238.872 -174.5401,334.129 -125.0753,137.755 -280.5361,216.89 -460.7294,234.476 -41.6918,3.663 -77.0237,6.595 -79.1437,6.595 -2.1199,-0.733 -27.5589,-3.664 -56.5311,-6.595 z m 197.8591,-320.94 c 148.3945,-54.222 250.8573,-167.796 286.8959,-318.008 15.5462,-68.877 10.5996,-180.986 -12.0128,-246.932 -45.225,-134.824 -163.9405,-246.933 -299.6155,-282.838 -54.4112,-13.921 -149.101,-13.921 -203.5123,0.733 -108.1159,29.31 -221.8849,120.901 -272.0564,220.554 -49.4648,97.455 -62.1844,209.564 -36.7453,312.88 19.7859,79.868 52.2914,139.22 109.5292,199.305 91.1566,95.256 192.2061,137.754 317.9881,131.892 45.2249,-2.198 84.7967,-8.793 109.5291,-17.586 z"
         id="path2-5"
         style="fill:#29333f;fill-opacity:1;stroke-width:0.482756" /><path
         d="m 6841.577,10786.01 c -342.7205,-35.905 -610.5371,-317.276 -642.3359,-672.654 -26.8523,-305.552 128.6084,-596.4491 391.4786,-732.7385 416.9175,-216.1578 909.4456,21.9821 1022.5081,494.5984 22.6125,93.7906 21.9058,250.5971 -0.7066,342.1891 -33.9187,134.824 -88.3301,238.873 -174.5402,334.128 -125.0752,137.756 -280.536,216.891 -460.7293,234.477 -41.6917,3.664 -77.0236,6.595 -79.1436,6.595 -2.1199,-0.733 -27.5589,-3.664 -56.5311,-6.595 z m 197.859,-320.939 c 148.3945,-54.223 250.8572,-167.798 286.8959,-318.009 15.5461,-68.877 10.5996,-180.9864 -12.0129,-246.9329 -45.225,-134.8239 -163.9404,-246.9329 -299.6154,-282.837 -54.4111,-13.9221 -149.1009,-13.9221 -203.5122,0.7327 -108.1159,29.3095 -221.8849,120.9018 -272.0564,220.5543 -49.4648,97.4541 -62.1844,209.5629 -36.7453,312.8789 19.7859,79.869 52.2914,139.22 109.5292,199.305 91.1566,95.256 192.2061,137.755 317.9881,131.893 45.2247,-2.198 84.7966,-8.792 109.529,-17.585 z"
         id="path2-9"
         style="fill:#29333f;fill-opacity:1;stroke-width:0.482756" /><path
         style="opacity:1;fill:#e6e6e6;fill-opacity:1;stroke-width:2.01723"
         d="m 6795.9643,9638.6473 c -298.2307,109.6416 -389.2676,473.8287 -174.1927,696.8477 95.9296,99.473 164.5641,128.737 300.1565,127.98 160.8309,-0.898 315.2942,-110.452 370.9013,-263.065 33.4327,-91.755 29.1631,-259.3596 -8.5322,-334.9469 -46.6398,-93.522 -175.4647,-202.7789 -271.8087,-230.5219 -100.064,-28.8148 -129.4334,-28.3119 -216.5242,3.7061 z"
         id="path12" /><path
         style="opacity:1;fill:#ececec;fill-opacity:1;stroke-width:2.01723"
         d="m 6657.3208,12862.139 c -161.3055,85.333 -266.7003,289.4 -236.2874,457.501 22.1995,122.704 130.8131,260.894 246.9114,314.148 132.9478,60.981 268.0177,46.289 388.4382,-42.25 119.5195,-87.877 171.439,-194.654 171.3362,-352.363 -0.095,-148.238 -45.3679,-239.469 -166.2887,-335.105 -102.8018,-81.308 -292.4754,-100.988 -404.1097,-41.931 z"
         id="path15" /><path
         style="opacity:1;fill:#ececec;fill-opacity:1;stroke-width:2.01723"
         d="m 6685.2861,15983.388 c -295.5024,165.508 -310.6475,567.597 -28.0904,745.776 205.0359,129.295 471.0494,39.207 573.2709,-194.146 78.9644,-180.26 28.2124,-386.949 -124.7128,-507.899 -103.3281,-81.722 -313.5919,-103.591 -420.4677,-43.731 z"
         id="path16" /><path
         style="opacity:1;fill:#6c968c;fill-opacity:1;stroke-width:2.01723"
         d="m 9500.3522,14526.454 c -1908.3831,72.005 -3583.6702,416.287 -3923.4719,806.298 l -76.4287,87.722 V 16754.2 c 0,733.549 7.4741,1329.774 16.6091,1324.945 333.5304,-176.336 578.2608,-268.907 984.036,-372.222 672.8253,-171.309 1589.1953,-295.366 2639.2124,-357.291 510.0534,-30.079 1987.3719,-30.072 2478.6969,0 1637.292,100.258 2830.863,324.238 3471.337,651.417 l 149.845,76.546 15.341,-323.983 c 8.437,-178.191 11.894,-780.573 7.682,-1338.627 l -7.659,-1014.644 -64.447,-69.732 c -144.353,-156.191 -608.189,-346.644 -1148.465,-471.566 -1191.158,-275.416 -2846.128,-396.597 -4542.2878,-332.6 z M 7172.8604,15683.63 c 154.1479,78.203 269.6899,202.441 348.1222,374.324 59.4913,130.373 64.9088,161.669 57.6427,332.969 -12.9918,306.303 -154.08,530.078 -413.819,656.346 -171.0304,83.144 -449.2562,86.528 -604.3845,7.352 -149.6472,-76.38 -266.2456,-188.758 -340.9464,-328.607 -60.5841,-113.42 -65.7311,-141.037 -65.7311,-352.691 0,-196.58 7.7233,-245.905 53.6566,-342.681 174.3973,-367.43 613.8631,-525.386 965.4595,-347.012 z m 5259.1386,93.128 c 918.833,83.005 1921.559,256.055 2020.234,348.654 30.207,28.346 39.631,64.001 34.821,131.735 -10.945,154.115 -59.258,163.222 -440.841,83.099 -653.183,-137.151 -1417.19,-232.083 -2234.289,-277.621 -515.073,-28.706 -537.548,-31.83 -585.307,-81.354 -46.307,-48.018 -44.176,-167.468 3.987,-223.513 36.685,-42.69 59.454,-44.322 426.301,-30.554 213.151,7.999 561.943,30.299 775.094,49.554 z"
         id="path17" /><path
         style="opacity:1;fill:#6c968c;fill-opacity:1;stroke-width:2.01723"
         d="m 9309.4803,17663.507 c -1517.1649,72.346 -2881.6607,318.652 -3493.0203,630.528 -162.731,83.015 -316.0084,214.622 -316.0084,271.333 0,40.817 117.7047,164.01 210.6978,220.521 493.6018,299.953 1609.3947,534.221 3133.2751,657.852 494.7358,40.137 2583.4905,40.137 3078.2265,0 1400.042,-113.584 2452.13,-321.31 3005.234,-593.359 183.535,-90.274 316.595,-209.125 316.595,-282.789 0,-114.88 -213.961,-261.487 -573.005,-392.629 -694.416,-253.636 -1771.82,-428.609 -3103.151,-503.958 -363.674,-20.582 -1878.9825,-25.614 -2258.8437,-7.499 z"
         id="path18" /><path
         style="opacity:1;fill:#6c968c;fill-opacity:1;stroke-width:2.01723"
         d="m 9298.4075,11401.765 c -1842.9198,94.048 -3332.7913,411.62 -3723.4541,793.671 l -74.5018,72.858 v 1348.263 1348.262 l 71.9729,-45.806 c 218.4554,-139.029 747.5085,-313.558 1291.2657,-425.974 976.0044,-201.777 2109.1224,-298.427 3508.7748,-299.283 2131.315,-1.302 3912.151,254.174 4720.237,677.16 73.763,38.611 140.579,63.506 148.482,55.323 19.96,-20.668 32.215,-2251.622 13.678,-2489.949 -13.419,-172.516 -21.937,-200.629 -76.935,-253.903 -346.836,-335.959 -1614.414,-626.263 -3310.639,-758.209 -410.927,-31.965 -2093.9473,-46.649 -2568.8805,-22.413 z m -2346.4019,1104.362 c 247.6734,47.476 415.5117,177.426 523.8307,405.579 64.6866,136.251 72.9682,175.064 72.1414,338.11 -0.6948,136.971 -12.9622,211.715 -47.854,291.559 -62.9315,144.011 -212.5316,308.018 -348.9421,382.548 -98.2445,53.678 -136.8213,60.955 -321.9989,60.738 -175.5471,-0.202 -227.7497,-9.135 -315.2686,-53.937 -145.482,-74.472 -276.3205,-213.298 -345.7451,-366.851 -49.49,-109.462 -58.5628,-160.536 -57.7423,-325.056 0.8384,-168.11 9.8672,-213.68 65.0815,-328.474 102.5295,-213.165 300.0025,-367.676 519.0395,-406.118 55.7792,-9.79 107.0605,-19.014 113.9585,-20.499 6.8981,-1.487 71.4724,8.595 143.4994,22.401 z m 5040.8574,159.153 c 726.796,50.337 1418.637,141.416 2022.54,266.266 379.708,78.499 408.721,94.871 409.352,230.999 0.643,138.158 -102.798,175.503 -331.843,119.807 -547.163,-133.056 -1473.067,-251.107 -2393.823,-305.21 -535.159,-31.447 -573.676,-43.675 -573.676,-182.122 0,-129.803 46,-153.252 300.635,-153.252 125.034,0 380.1,10.58 566.815,23.512 z"
         id="path19" /><path
         style="opacity:1;fill:#6c968c;fill-opacity:1;stroke-width:2.01723"
         d="m 9099.0979,8279.826 c -1825.4024,117.9842 -3246.0595,440.5246 -3540.9485,803.9236 l -57.6978,71.1024 v 1330.117 c 0,731.563 3.6484,1330.116 8.1076,1330.116 4.4592,0 101.6227,-45.801 215.9189,-101.781 598.0579,-292.914 1617.1189,-489.592 3186.3831,-614.972 484.1701,-38.683 2453.2728,-38.917 2945.3538,-0.352 1619.43,126.925 2726.53,351.565 3288.728,667.31 l 121.681,68.34 V 10488.923 9144.2165 l -88.698,-87.4934 c -332.388,-327.8716 -1409.681,-589.019 -3078.11,-746.1678 -452.19,-42.5915 -2493.7371,-63.4987 -3000.7181,-30.7304 z M 7239.048,9368.563 c 143.7667,72.9363 263.052,205.6947 338.6319,376.8802 45.3392,102.6913 56.9002,164.6277 56.9002,304.8318 0,308.346 -151.1206,549.397 -427.9133,682.56 -179.9977,86.596 -427.8601,85.219 -602.0731,-3.348 -145.8658,-74.154 -291.0764,-228.09 -358.488,-380.027 -68.8597,-155.201 -67.3853,-453.0004 3.0328,-612.5645 56.0102,-126.9162 200.5095,-293.7783 303.2251,-350.1527 210.4162,-115.4838 480.7765,-122.6417 686.6844,-18.1798 z m 4628.618,104.8016 c 936.104,62.182 2151.398,240.354 2413.247,353.8028 126.117,54.641 126.255,238.9426 0.218,288.6326 -37.256,14.688 -144.72,1.141 -366.835,-46.245 -631.846,-134.7976 -1398.618,-229.7045 -2249.949,-278.4883 -475.756,-27.2618 -508.511,-32.0215 -555.468,-80.7131 -58.275,-60.4261 -63.959,-137.6148 -15.426,-209.4646 31.137,-46.0971 53.142,-51.036 227.369,-51.036 106.093,0 352.173,10.58 546.846,23.5116 z"
         id="path20" /></g><path
       d="m 14200.517,13294.095 c -683.322,-169.996 -1725.615,-300.423 -2725.511,-341.457 -113.77,-4.396 -218.353,-10.99 -231.779,-14.654 -111.649,-28.577 -149.101,-168.53 -67.837,-252.795 43.812,-46.162 60.771,-48.361 256.51,-39.568 939.832,41.766 1724.202,126.764 2432.962,264.519 151.928,29.309 412.678,87.928 459.316,103.316 118.009,38.102 138.502,209.563 33.212,272.578 -44.518,26.379 -76.317,27.844 -156.873,8.061 z"
       id="path8"
       style="fill:#29333f;fill-opacity:1;stroke-width:0.719571"
       inkscape:export-filename="../../../../../../../../../Downloads/InkScrape/me.ppvan.psequel.svg"
       inkscape:export-xdpi="3.680511"
       inkscape:export-ydpi="3.680511" /></g></svg>
