<svg height="128" width="128" xmlns:xlink="http://www.w3.org/1999/xlink" xmlns="http://www.w3.org/2000/svg"><filter id="c" height="1" width="1" x="0" y="0"><feColorMatrix color-interpolation-filters="sRGB" values="0 0 0 0 1 0 0 0 0 1 0 0 0 0 1 0 0 0 1 0"/></filter><linearGradient id="g" gradientUnits="userSpaceOnUse" x1="20" x2="108" y1="116" y2="116"><stop offset="0" stop-color="#1a5fb4"/><stop offset=".143" stop-color="#1c71d8"/><stop offset=".857" stop-color="#1c71d8"/><stop offset="1" stop-color="#1a5fb4"/></linearGradient><linearGradient id="h" gradientUnits="userSpaceOnUse" x1="51" x2="77" y1="128" y2="128"><stop offset="0" stop-color="#3584e4"/><stop offset=".678" stop-color="#62a0ea"/><stop offset="1" stop-color="#3584e4"/></linearGradient><linearGradient id="i" gradientUnits="userSpaceOnUse" x1="64" x2="64" y1="46" y2="75"><stop offset="0" stop-color="#3584e4"/><stop offset="1" stop-color="#3584e4" stop-opacity="0"/></linearGradient><linearGradient id="a" gradientUnits="userSpaceOnUse"><stop offset="0" stop-color="#f9f06b"/><stop offset=".714" stop-color="#fffbc4"/><stop offset="1" stop-color="#f9f06b"/></linearGradient><linearGradient id="j" x1="85" x2="97" xlink:href="#a" y1="120" y2="120"/><linearGradient id="k" x1="31" x2="43" xlink:href="#a" y1="120" y2="120"/><linearGradient id="b" gradientUnits="userSpaceOnUse"><stop offset="0" stop-color="#77767b"/><stop offset=".209" stop-color="#3d3846"/><stop offset=".6"/><stop offset="1"/></linearGradient><radialGradient id="l" cx="0" cy="0" gradientTransform="matrix(-7.5 0 0 -5.35714 91.5 59.5)" r="1" xlink:href="#b"/><radialGradient id="m" cx="0" cy="0" gradientTransform="matrix(-7.5 0 0 -5.35714 41.5 59.5)" r="1" xlink:href="#b"/><clipPath id="f"><path d="M0 17h128v88H0zm0 0"/></clipPath><clipPath id="e"><path d="M0 0h128v128H0z"/></clipPath><clipPath id="d"><path d="M0 0h128v128H0z"/></clipPath><mask id="o"><g filter="url(#c)"><g clip-path="url(#d)" filter="url(#c)"><g clip-path="url(#e)"><g clip-path="url(#f)"><path d="M-.258 27.156c-.379-5.734 4.633-10.351 10.313-9.5l52.613 7.875a8.956 8.956 0 0 0 2.664 0l52.613-7.875c5.68-.851 10.696 3.766 10.313 9.5l-4.598 68.95c-.355 5.3-5.2 9.144-10.445 8.28l-47.75-7.874a8.992 8.992 0 0 0-2.93 0l-47.75 7.875c-5.242.863-10.09-2.98-10.445-8.282zm0 0" fill="#1c71d8"/></g><path d="M29 12h70c4.969 0 9 4.031 9 9v86c0 4.969-4.031 9-9 9H29c-4.969 0-9-4.031-9-9V21c0-4.969 4.031-9 9-9zm0 0" fill="url(#g)"/><path d="M29 12h70c4.969 0 9 4.031 9 9v62c0 4.969-4.031 9-9 9H29c-4.969 0-9-4.031-9-9V21c0-4.969 4.031-9 9-9zm0 0" fill="#3584e4"/><path d="M49 46h30l-2.563 70.008C76.195 122.699 70.695 128 64 128s-12.195-5.3-12.438-11.992zm0 0" fill="url(#h)"/><path d="M49 46h30l-1 29H50zm0 0" fill="url(#i)"/><path d="M73 116c0 4.969-4.031 9-9 9s-9-4.031-9-9 4.031-9 9-9 9 4.031 9 9zm0 0" fill="#1c71d8"/><path d="M85.234 103.21a1.999 1.999 0 0 1 1.989-2.21h7.554a1.999 1.999 0 0 1 1.989 2.21l-1.348 12.813C95.18 118.281 93.273 120 91 120s-4.18-1.719-4.418-3.977zm0 0" fill="url(#j)"/><path d="M31.234 103.21a1.999 1.999 0 0 1 1.989-2.21h7.554a1.999 1.999 0 0 1 1.989 2.21l-1.348 12.813C41.18 118.281 39.273 120 37 120s-4.18-1.719-4.418-3.977zm0 0" fill="url(#k)"/><path d="M96 61a5 5 0 0 1-5 5h-4a5 5 0 1 1 0-10h4a5 5 0 0 1 5 5zm0 0" fill="url(#l)"/><path d="M46 61a5 5 0 0 1-5 5h-4a5 5 0 1 1 0-10h4a5 5 0 0 1 5 5zm0 0" fill="url(#m)"/></g></g></g></mask><mask id="q"><g filter="url(#c)"><path fill-opacity=".8" d="M-28.16-28.16h184.32v184.32H-28.16z"/></g></mask><linearGradient id="r" gradientTransform="matrix(0 .37 -.98462 0 295.385 -30.36)" gradientUnits="userSpaceOnUse" x1="300" x2="428" y1="235" y2="235"><stop offset="0" stop-color="#f9f06b"/><stop offset="1" stop-color="#f5c211"/></linearGradient><clipPath id="p"><path d="M0 0h128v128H0z"/></clipPath><clipPath id="n"><path d="M0 0h128v128H0z"/></clipPath><path d="M-.258 27.156c-.379-5.734 4.633-10.351 10.313-9.5l52.613 7.875a8.956 8.956 0 0 0 2.664 0l52.613-7.875c5.68-.851 10.696 3.766 10.313 9.5l-4.598 68.95c-.355 5.3-5.2 9.144-10.445 8.28l-47.75-7.874a8.992 8.992 0 0 0-2.93 0l-47.75 7.875c-5.242.863-10.09-2.98-10.445-8.282zm0 0" fill="#1c71d8"/><path d="M29 12h70c4.969 0 9 4.031 9 9v86c0 4.969-4.031 9-9 9H29c-4.969 0-9-4.031-9-9V21c0-4.969 4.031-9 9-9zm0 0" fill="url(#g)"/><path d="M29 12h70c4.969 0 9 4.031 9 9v62c0 4.969-4.031 9-9 9H29c-4.969 0-9-4.031-9-9V21c0-4.969 4.031-9 9-9zm0 0" fill="#3584e4"/><path d="M85.234 103.21a1.999 1.999 0 0 1 1.989-2.21h7.554a1.999 1.999 0 0 1 1.989 2.21l-1.348 12.813C95.18 118.281 93.273 120 91 120s-4.18-1.719-4.418-3.977zm0 0" fill="url(#j)"/><path d="M31.234 103.21a1.999 1.999 0 0 1 1.989-2.21h7.554a1.999 1.999 0 0 1 1.989 2.21l-1.348 12.813C41.18 118.281 39.273 120 37 120s-4.18-1.719-4.418-3.977zm0 0" fill="url(#k)"/><path d="M96 61a5 5 0 0 1-5 5h-4a5 5 0 1 1 0-10h4a5 5 0 0 1 5 5zm0 0" fill="url(#l)"/><path d="M46 61a5 5 0 0 1-5 5h-4a5 5 0 1 1 0-10h4a5 5 0 0 1 5 5zm0 0" fill="url(#m)"/><g clip-path="url(#n)" mask="url(#o)"><g clip-path="url(#p)" mask="url(#q)"><path d="M128 80.64V128H0V80.64zm0 0" fill="url(#r)"/><path d="M13.309 80.64 60.664 128H81.88L34.52 80.64zm42.421 0L103.094 128h21.215L76.945 80.64zm42.43 0L128 110.48V89.27l-8.629-8.63zM0 88.548v21.215L18.238 128h21.215zm0 0"/></g></g><path d="M49 46h30l-2.563 70.008C76.195 122.699 70.695 128 64 128s-12.195-5.3-12.438-11.992zm0 0" fill="url(#h)"/><path d="M49 46h30l-1 29H50zm0 0" fill="url(#i)"/><path d="M73 116c0 4.969-4.031 9-9 9s-9-4.031-9-9 4.031-9 9-9 9 4.031 9 9zm0 0" fill="#1c71d8"/></svg>