<svg width="128" height="128" fill="none" xmlns="http://www.w3.org/2000/svg"><g clip-path="url(#a)"><path d="M-.256 27.154c-.383-5.732 4.63-10.35 10.312-9.499l52.612 7.875a9.001 9.001 0 0 0 2.664 0l52.612-7.875c5.681-.85 10.695 3.767 10.312 9.5l-4.596 68.95c-.354 5.303-5.201 9.146-10.445 8.281l-47.75-7.874a9 9 0 0 0-2.93 0l-47.75 7.874c-5.244.865-10.091-2.978-10.445-8.281l-4.596-68.95Z" fill="#1C71D8"/><rect x="20" y="12" width="88" height="104" rx="9" fill="url(#b)"/><rect x="20" y="12" width="88" height="80" rx="9" fill="#3584E4"/><path d="M49 46h30l-2.561 70.008C76.194 122.701 70.697 128 64 128s-12.194-5.299-12.439-11.992L49 46Z" fill="url(#c)"/><path d="M49 46h30l-1 29H50l-1-29Z" fill="url(#d)"/><circle cx="64" cy="116" r="9" fill="#1C71D8"/><path d="M85.233 103.209A2 2 0 0 1 87.222 101h7.556a2 2 0 0 1 1.99 2.209l-1.35 12.813a4.443 4.443 0 0 1-8.837 0l-1.348-12.813Z" fill="url(#e)"/><path d="M31.233 103.209A2 2 0 0 1 33.222 101h7.556a2 2 0 0 1 1.99 2.209l-1.35 12.813a4.443 4.443 0 0 1-8.837 0l-1.348-12.813Z" fill="url(#f)"/><rect x="96" y="56" width="10" height="14" rx="5" transform="rotate(90 96 56)" fill="url(#g)"/><rect x="46" y="56" width="10" height="14" rx="5" transform="rotate(90 46 56)" fill="url(#h)"/></g><defs><linearGradient id="b" x1="20" y1="116" x2="108" y2="116" gradientUnits="userSpaceOnUse"><stop stop-color="#1A5FB4"/><stop offset=".143" stop-color="#1C71D8"/><stop offset=".857" stop-color="#1C71D8"/><stop offset="1" stop-color="#1A5FB4"/></linearGradient><linearGradient id="c" x1="51" y1="128" x2="77" y2="128" gradientUnits="userSpaceOnUse"><stop stop-color="#3584E4"/><stop offset=".678" stop-color="#62A0EA"/><stop offset="1" stop-color="#3584E4"/></linearGradient><linearGradient id="d" x1="64" y1="46" x2="64" y2="75" gradientUnits="userSpaceOnUse"><stop stop-color="#3584E4"/><stop offset="1" stop-color="#3584E4" stop-opacity="0"/></linearGradient><linearGradient id="e" x1="85" y1="120" x2="97" y2="120" gradientUnits="userSpaceOnUse"><stop stop-color="#F9F06B"/><stop offset=".714" stop-color="#FFFBC4"/><stop offset="1" stop-color="#F9F06B"/></linearGradient><linearGradient id="f" x1="31" y1="120" x2="43" y2="120" gradientUnits="userSpaceOnUse"><stop stop-color="#F9F06B"/><stop offset=".714" stop-color="#FFFBC4"/><stop offset="1" stop-color="#F9F06B"/></linearGradient><radialGradient id="g" cx="0" cy="0" r="1" gradientUnits="userSpaceOnUse" gradientTransform="matrix(0 7.5 -5.35714 0 99.5 60.5)"><stop stop-color="#77767B"/><stop offset=".209" stop-color="#3D3846"/><stop offset=".6"/><stop offset="1"/></radialGradient><radialGradient id="h" cx="0" cy="0" r="1" gradientUnits="userSpaceOnUse" gradientTransform="matrix(0 7.5 -5.35714 0 49.5 60.5)"><stop stop-color="#77767B"/><stop offset=".209" stop-color="#3D3846"/><stop offset=".6"/><stop offset="1"/></radialGradient><clipPath id="a"><path fill="#fff" d="M0 0h128v128H0z"/></clipPath></defs></svg>