<?xml version="1.0" encoding="iso-8859-1"?>
<!-- Uploaded to: SVG Repo, www.svgrepo.com, Generator: SVG Repo Mixer Tools -->
<svg fill="#000000" height="800px" width="800px" version="1.1" id="Layer_1" xmlns="http://www.w3.org/2000/svg" xmlns:xlink="http://www.w3.org/1999/xlink" 
	 viewBox="0 0 512 512" xml:space="preserve">
<g>
	<g>
		<path d="M0,22.261v467.478h512V22.261H0z M155.826,456.348H33.391v-77.913h122.435V456.348z M155.826,345.043H33.391V267.13
			h122.435V345.043z M155.826,233.739H33.391v-77.913h122.435V233.739z M322.783,456.348H189.217v-77.913h133.565V456.348z
			 M322.783,345.043H189.217V267.13h133.565V345.043z M322.783,233.739H189.217v-77.913h133.565V233.739z M478.609,456.348H356.174
			v-77.913h122.435V456.348z M478.609,345.043H356.174V267.13h122.435V345.043z M478.609,233.739H356.174v-77.913h122.435V233.739z
			 M478.609,122.435H33.391V55.652h445.217V122.435z"/>
	</g>
</g>
</svg>