<svg version="1.1" viewBox="0 0 16 16" xmlns="http://www.w3.org/2000/svg">
    <g>
        <path d="m2 5a1.0001 1.0001 0 0 0-1 1v4a1.0001 1.0001 0 0 0 0.16992 0.54492l1.8301-1.9063v-0.63867c0-0.554 0.446-1 1-1h8c0.554 0 1 0.446 1 1s-0.446 1-1 1h-6v2h8a1.0001 1.0001 0 0 0 1-1v-4a1.0001 1.0001 0 0 0-1-1h-12zm2.0391 4-1.9199 2h2.8809v-2h-0.96094z" stroke-linecap="round" stroke-linejoin="round" stroke-width="2"/>
        <path d="m5 8v6.049l-1.366-1.3333-0.78089 1.5932c-0.19056 0.43124-1.1847 0.0845-0.9021-0.49184l0.77273-1.6544h-1.7238z" color="#000000" display="block" overflow="visible"/>
        <rect x="2" y="1" width="12" height="3" rx="1" ry="1" opacity=".3" stroke-linecap="round" stroke-linejoin="round" stroke-width="2"/>
        <rect x="2" y="12" width="12" height="3" rx="1" ry="1" opacity=".3" stroke-linecap="round" stroke-linejoin="round" stroke-width="2"/>
    </g>
</svg>
